<svg xmlns="http://www.w3.org/2000/svg" xmlns:xlink="http://www.w3.org/1999/xlink" width="1200" zoomAndPan="magnify" viewBox="0 0 900 899.99999" height="1200" preserveAspectRatio="xMidYMid meet" version="1.0"><defs><clipPath id="7ca4e75899"><path d="M 416 391 L 806.214844 391 L 806.214844 749.828125 L 416 749.828125 Z M 416 391 " clip-rule="nonzero"/></clipPath><clipPath id="479584493a"><path d="M 93.714844 149.828125 L 711 149.828125 L 711 749.828125 L 93.714844 749.828125 Z M 93.714844 149.828125 " clip-rule="nonzero"/></clipPath><clipPath id="4308a99d58"><path d="M 93.714844 37.328125 L 453.714844 37.328125 L 453.714844 217.328125 L 93.714844 217.328125 Z M 93.714844 37.328125 " clip-rule="nonzero"/></clipPath></defs><rect x="-90" width="1080" fill="#ffffff" y="-89.999999" height="1079.999988" fill-opacity="1"/><rect x="-90" width="1080" fill="#ffffff" y="-89.999999" height="1079.999988" fill-opacity="1"/><path fill="#000000" d="M 658.570312 413.261719 L 665.390625 413.261719 L 665.390625 304.785156 C 662.371094 305.996094 656.835938 307.53125 648.773438 309.386719 C 648.773438 309.386719 648.773438 309.386719 648.773438 309.394531 C 645.777344 310.085938 642.429688 310.828125 638.726562 311.605469 C 626.714844 314.160156 612.933594 315.578125 597.394531 315.878906 C 591.628906 324.082031 586.070312 332.988281 580.71875 342.59375 L 598.417969 342.59375 C 608.136719 343.03125 616.8125 344.898438 624.445312 348.207031 C 631.425781 351.226562 637.53125 355.453125 642.757812 360.878906 C 653.707031 372.246094 658.976562 387.222656 658.570312 405.816406 Z M 658.570312 413.261719 " fill-opacity="1" fill-rule="nonzero"/><g clip-path="url(#7ca4e75899)"><path fill="#000000" d="M 799.957031 623.386719 C 790.035156 655.207031 774.839844 679.785156 754.378906 697.144531 C 733.917969 714.5 708.589844 723.179688 678.414062 723.179688 L 557.488281 723.179688 L 557.488281 549.003906 L 656.707031 549.003906 C 671.59375 549.421875 683.992188 554.582031 693.910156 564.5 C 703.835938 574.421875 708.796875 587.027344 708.796875 602.3125 L 708.796875 607.269531 L 714.382812 607.269531 L 714.382812 464.089844 L 708.796875 464.089844 L 708.796875 469.667969 C 708.796875 484.546875 703.835938 497.046875 693.910156 507.164062 C 683.992188 517.296875 671.375 522.566406 656.082031 522.96875 L 557.488281 522.96875 L 557.488281 391.527344 L 464.46875 608.464844 L 464.46875 704.585938 C 464.058594 715.335938 460.019531 724.523438 452.382812 732.167969 C 449.890625 734.660156 447.230469 736.746094 444.410156 738.425781 C 438.574219 741.90625 432.035156 743.636719 424.785156 743.636719 L 416.722656 743.636719 L 416.722656 749.839844 L 777.007812 749.839844 L 806.15625 623.390625 L 799.957031 623.390625 Z M 799.957031 623.386719 " fill-opacity="1" fill-rule="nonzero"/></g><g clip-path="url(#479584493a)"><path fill="#000000" d="M 536.703125 315.949219 L 541.523438 305.410156 C 548.132812 291.367188 555.367188 277.113281 563.230469 262.644531 C 568.191406 253.144531 573.246094 244.980469 578.421875 238.160156 C 583.589844 231.34375 590.609375 222.460938 599.507812 211.507812 C 608.386719 200.5625 623.378906 188.679688 644.464844 175.871094 C 663.070312 164.714844 685.179688 158.515625 710.816406 157.273438 L 710.816406 151.070312 C 703.785156 150.246094 695.097656 149.828125 684.773438 149.828125 C 642.609375 149.828125 602.300781 167.183594 563.847656 201.898438 C 537.804688 225.046875 515.066406 259.542969 495.636719 305.410156 L 491.121094 315.949219 L 464.46875 378.09375 L 384.433594 564.757812 L 367.265625 604.785156 L 275.121094 381.03125 L 261.84375 348.796875 C 260.191406 343.839844 259.363281 338.882812 259.363281 333.917969 C 259.363281 328.960938 261.535156 323.6875 265.875 318.113281 C 270.21875 312.535156 276.933594 309.75 286.03125 309.75 L 290.992188 309.75 L 290.992188 303.546875 L 93.792969 303.546875 L 93.792969 309.75 L 98.753906 309.75 C 108.671875 309.75 118.386719 312.75 127.902344 318.734375 C 137.402344 324.730469 145.261719 333.511719 151.460938 345.074219 L 168.148438 381.023438 L 171.261719 387.722656 L 339.359375 749.828125 L 344.945312 749.828125 C 345.589844 742.941406 348.644531 732.292969 354.121094 717.882812 C 359.148438 704.636719 366.222656 688.21875 375.328125 668.628906 L 402.628906 608.960938 L 464.46875 473.820312 Z M 536.703125 315.949219 " fill-opacity="1" fill-rule="nonzero"/></g><g clip-path="url(#4308a99d58)"><path fill="#ffffff" d="M 413.714844 37.328125 L 133.714844 37.328125 C 111.605469 37.328125 93.714844 55.242188 93.714844 77.328125 L 93.714844 177.328125 C 93.714844 199.414062 111.605469 217.328125 133.714844 217.328125 L 413.714844 217.328125 C 435.820312 217.328125 453.714844 199.414062 453.714844 177.328125 L 453.714844 77.328125 C 453.714844 55.242188 435.820312 37.328125 413.714844 37.328125 Z M 449.714844 177.328125 C 449.714844 197.210938 433.613281 213.328125 413.714844 213.328125 L 133.714844 213.328125 C 113.8125 213.328125 97.714844 197.210938 97.714844 177.328125 L 97.714844 77.328125 C 97.714844 57.445312 113.8125 41.328125 133.714844 41.328125 L 413.714844 41.328125 C 433.613281 41.328125 449.714844 57.445312 449.714844 77.328125 Z M 449.714844 177.328125 " fill-opacity="1" fill-rule="nonzero"/></g></svg>